<?xml version="1.0" encoding="UTF-8"?>
<!DOCTYPE svg PUBLIC "-//W3C//DTD SVG 1.1//EN" "http://www.w3.org/Graphics/SVG/1.1/DTD/svg11.dtd">
<!-- Creator: CorelDRAW X7 -->
<svg xmlns="http://www.w3.org/2000/svg" xml:space="preserve" width="70px" height="68px" version="1.1" style="shape-rendering:geometricPrecision; text-rendering:geometricPrecision; image-rendering:optimizeQuality; fill-rule:evenodd; clip-rule:evenodd"
viewBox="0 0 70 68"
 xmlns:xlink="http://www.w3.org/1999/xlink">
 <defs>
  <style type="text/css">
   <![CDATA[
    .fil0 {fill:#FEFEFE}
   ]]>
  </style>
 </defs>
 <g id="Capa_x0020_1">
  <metadata id="CorelCorpID_0Corel-Layer"/>
  <path class="fil0" d="M37 68l0 -26 -9 0 0 -11 9 0c0,-2 0,-8 0,-10 1,-6 5,-10 11,-10 2,-1 4,-1 6,-1 0,0 4,1 5,1 0,0 0,4 0,4 0,2 0,3 0,5 -3,0 -8,-1 -10,1 -1,1 -1,3 -1,5 0,2 0,4 0,5l10 0 -1 11 -9 0 0 26c1,0 15,0 17,0 1,0 2,0 3,-1 2,-1 2,-4 2,-6l0 -53c0,-3 0,-6 -2,-7 -1,-1 -2,-1 -3,-1l-59 0c-2,0 -3,0 -4,0 -3,2 -3,4 -3,6l0 57c0,2 1,3 1,4 1,0 2,1 3,1 3,0 6,0 9,0 1,0 24,0 25,0z"/>
 </g>
</svg>
