<?xml version="1.0" encoding="UTF-8"?>
<!DOCTYPE svg PUBLIC "-//W3C//DTD SVG 1.1//EN" "http://www.w3.org/Graphics/SVG/1.1/DTD/svg11.dtd">
<!-- Creator: CorelDRAW X7 -->
<svg xmlns="http://www.w3.org/2000/svg" xml:space="preserve" width="70px" height="68px" version="1.1" style="shape-rendering:geometricPrecision; text-rendering:geometricPrecision; image-rendering:optimizeQuality; fill-rule:evenodd; clip-rule:evenodd"
viewBox="0 0 70 68"
 xmlns:xlink="http://www.w3.org/1999/xlink">
 <defs>
  <style type="text/css">
   <![CDATA[
    .fil0 {fill:#FEFEFE}
   ]]>
  </style>
 </defs>
 <g id="Capa_x0020_1">
  <metadata id="CorelCorpID_0Corel-Layer"/>
  <g id="_2371424561824">
   <path class="fil0" d="M24 1c-2,0 -4,0 -8,0 -6,1 -12,5 -14,12 -2,5 -2,10 -2,15 0,6 0,12 0,17 1,6 0,10 3,14 6,9 15,9 26,9 5,0 11,1 17,0 6,0 10,0 15,-2 3,-2 6,-6 8,-10 1,-5 1,-10 1,-15 0,-6 0,-11 0,-17 0,-6 0,-10 -3,-14 -2,-4 -5,-6 -9,-8 -6,-2 -18,-1 -25,-1 -3,0 -6,-1 -9,0zm-1 6c-4,0 -8,0 -11,3 -3,2 -5,4 -5,9 -1,4 -1,23 0,27 0,5 0,8 2,11 2,3 5,4 10,5 4,1 24,1 28,0 5,0 9,0 12,-3 3,-2 4,-5 5,-9 0,-5 0,-22 0,-27 0,-18 -12,-16 -27,-16 -2,0 -4,0 -7,0 -2,0 -5,0 -7,0z"/>
   <path class="fil0" d="M34 17c-6,1 -9,3 -12,6 -4,3 -5,8 -5,13 1,9 10,17 20,16 6,-1 9,-3 12,-6 5,-5 6,-13 2,-20 -3,-6 -10,-10 -17,-9zm0 6c-7,1 -11,7 -10,13 0,6 6,11 13,10 6,-1 11,-6 10,-13 -1,-3 -2,-6 -4,-7 -2,-2 -6,-3 -9,-3z"/>
   <path class="fil0" d="M53 12c-6,2 -3,10 2,8 2,0 4,-2 3,-4 0,-2 -2,-4 -5,-4z"/>
  </g>
 </g>
</svg>
